<svg width="175" height="63" viewBox="0 0 175 63" fill="none" xmlns="http://www.w3.org/2000/svg">
<path d="M41.7683 44.4428L44.9735 61.6138L27.8533 52.9267L10.9871 62.1126L13.952 43.1404L0 29.9412L16.3951 27.3133L18.9629 26.8977L27.2067 9.55579L35.9585 26.6483L54.9999 29.1237L41.4497 42.734L41.7683 44.4428Z" fill="#F7C93F"/>
<path d="M38.1104 41.7042L40.7845 56.0211L27.7977 49.4354L15.0049 56.4044L17.254 42.0137L6.67798 32.0011L21.0595 29.6919L27.3081 16.5388L33.9493 29.5026L48.3909 31.3822L38.1104 41.7042Z" fill="#F7E33F"/>
<path opacity="0.2" d="M41.4498 42.734L41.7685 44.4428C40.7424 44.5952 39.7069 44.6755 38.6696 44.6829H38.471C33.3745 44.6903 28.4243 42.9803 24.419 39.8289C20.4137 36.6775 17.5871 32.2685 16.3953 27.3133L18.9631 26.8977L27.2068 9.55579L35.9586 26.6437L55 29.1191L41.4498 42.734Z" fill="white"/>
<path d="M104.363 41.2301L108.15 61.5231L87.9175 51.2565L67.9847 62.1126L71.4888 39.6909L55 24.0918L74.3761 20.9862L77.4107 20.495L87.1534 0L97.4964 20.2002L120 23.1257L103.986 39.2106L104.363 41.2301Z" fill="#F7C93F"/>
<path d="M100.04 37.9936L103.2 54.9136L87.852 47.1304L72.7332 55.3666L75.3913 38.3593L62.8923 26.5263L79.8887 23.7972L87.2734 8.25272L95.1221 23.5735L112.189 25.7949L100.04 37.9936Z" fill="#F7E33F"/>
<path opacity="0.2" d="M103.986 39.2106L104.363 41.2301C103.15 41.4103 101.926 41.5051 100.7 41.5139H100.466C94.4426 41.5226 88.5923 39.5017 83.8588 35.7773C79.1253 32.0529 75.7847 26.8422 74.3762 20.9862L77.4109 20.495L87.1535 0L97.4965 20.1948L120 23.1203L103.986 39.2106Z" fill="white"/>
<path d="M161.768 44.4428L164.973 61.6138L147.853 52.9267L130.987 62.1126L133.952 43.1404L120 29.9412L136.395 27.3133L138.963 26.8977L147.207 9.55579L155.958 26.6483L175 29.1237L161.45 42.734L161.768 44.4428Z" fill="#F7C93F"/>
<path d="M158.11 41.7042L160.784 56.0211L147.798 49.4354L135.005 56.4044L137.254 42.0137L126.678 32.0011L141.06 29.6919L147.308 16.5388L153.949 29.5026L168.391 31.3822L158.11 41.7042Z" fill="#F7E33F"/>
<path opacity="0.2" d="M161.45 42.734L161.768 44.4428C160.742 44.5952 159.707 44.6755 158.67 44.6829H158.471C153.375 44.6903 148.424 42.9803 144.419 39.8289C140.414 36.6775 137.587 32.2685 136.395 27.3133L138.963 26.8977L147.207 9.55579L155.959 26.6437L175 29.1191L161.45 42.734Z" fill="white"/>
</svg>
