<svg width="493" height="171" viewBox="0 0 493 171" fill="none" xmlns="http://www.w3.org/2000/svg">
<path d="M37.9648 60H36.2832L33.207 55.2832C31.9219 56.9785 30.3633 58.332 28.5312 59.3438C26.6992 60.3281 24.6621 60.8203 22.4199 60.8203H19.3438C17.3477 60.8203 15.4609 60.4512 13.6836 59.7129C11.9336 58.9473 10.4023 57.9082 9.08984 56.5957C7.77734 55.2832 6.73828 53.752 5.97266 52.002C5.23438 50.252 4.86523 48.3789 4.86523 46.3828V14.8008C4.86523 12.8047 5.23438 10.9316 5.97266 9.18164C6.73828 7.43164 7.77734 5.90039 9.08984 4.58789C10.4023 3.27539 11.9336 2.25 13.6836 1.51172C15.4609 0.746094 17.3477 0.363281 19.3438 0.363281H23.5273C25.5234 0.363281 27.3965 0.746094 29.1465 1.51172C30.8965 2.25 32.4277 3.27539 33.7402 4.58789C35.0527 5.90039 36.0781 7.43164 36.8164 9.18164C37.582 10.9316 37.9648 12.8047 37.9648 14.8008V17.1797L32.6738 18V14.8008C32.6738 13.4883 32.4277 12.2715 31.9355 11.1504C31.4434 10.002 30.7734 9.00391 29.9258 8.15625C29.0781 7.30859 28.0801 6.63867 26.9316 6.14648C25.8105 5.6543 24.5938 5.4082 23.2812 5.4082H19.5898C18.2773 5.4082 17.0469 5.6543 15.8984 6.14648C14.7773 6.63867 13.7793 7.30859 12.9043 8.15625C12.0566 9.00391 11.3867 10.002 10.8945 11.1504C10.4023 12.2715 10.1562 13.4883 10.1562 14.8008V46.3828C10.1562 47.6953 10.4023 48.9258 10.8945 50.0742C11.3867 51.1953 12.0566 52.1934 12.9043 53.0684C13.7793 53.916 14.7773 54.5859 15.8984 55.0781C17.0469 55.5703 18.2773 55.8164 19.5898 55.8164H23.2812C24.5938 55.8164 25.8105 55.5703 26.9316 55.0781C28.0801 54.5859 29.0781 53.916 29.9258 53.0684C30.7734 52.1934 31.4434 51.1953 31.9355 50.0742C32.4277 48.9258 32.6738 47.6953 32.6738 46.3828V34.1191H23.2812V29.0742H37.9648V60ZM75.2891 60L72.5 55.7344C71.3516 57.293 69.916 58.5371 68.1934 59.4668C66.4707 60.3691 64.584 60.8203 62.5332 60.8203H61.2617C59.5664 60.8203 57.9668 60.5059 56.4629 59.877C54.959 59.2207 53.6465 58.332 52.5254 57.2109C51.4043 56.0898 50.5156 54.7773 49.8594 53.2734C49.2305 51.7695 48.916 50.1699 48.916 48.4746V18H53.9609V48.7617C53.9609 49.7734 54.1523 50.7305 54.5352 51.6328C54.918 52.5078 55.4375 53.2734 56.0938 53.9297C56.75 54.5859 57.5156 55.1055 58.3906 55.4883C59.293 55.8711 60.25 56.0625 61.2617 56.0625H64.625C65.6367 56.0625 66.5801 55.8711 67.4551 55.4883C68.3574 55.1055 69.1367 54.5859 69.793 53.9297C70.4492 53.2734 70.9688 52.5078 71.3516 51.6328C71.7344 50.7305 71.9258 49.7734 71.9258 48.7617V18H76.9707V60H75.2891ZM115.115 48.4746C115.115 50.1699 114.787 51.7695 114.131 53.2734C113.502 54.7773 112.627 56.0898 111.506 57.2109C110.385 58.332 109.072 59.2207 107.568 59.877C106.064 60.5059 104.465 60.8203 102.77 60.8203H99.4062C97.7109 60.8203 96.1113 60.5059 94.6074 59.877C93.1035 59.2207 91.791 58.332 90.6699 57.2109C89.5488 56.0898 88.6602 54.7773 88.0039 53.2734C87.375 51.7695 87.0605 50.1699 87.0605 48.4746V29.5254C87.0605 27.8301 87.375 26.2305 88.0039 24.7266C88.6602 23.2227 89.5488 21.9102 90.6699 20.7891C91.791 19.668 93.1035 18.793 94.6074 18.1641C96.1113 17.5078 97.7109 17.1797 99.4062 17.1797H102.77C104.465 17.1797 106.064 17.5078 107.568 18.1641C109.072 18.793 110.385 19.668 111.506 20.7891C112.627 21.9102 113.502 23.2227 114.131 24.7266C114.787 26.2305 115.115 27.8301 115.115 29.5254V39.4102H92.1055V48.7617C92.1055 49.7734 92.2969 50.7305 92.6797 51.6328C93.0625 52.5078 93.582 53.2734 94.2383 53.9297C94.8945 54.5859 95.6602 55.1055 96.5352 55.4883C97.4375 55.8711 98.3945 56.0625 99.4062 56.0625H102.77C103.781 56.0625 104.725 55.8711 105.6 55.4883C106.502 55.1055 107.281 54.5859 107.938 53.9297C108.594 53.2734 109.113 52.5078 109.496 51.6328C109.879 50.7305 110.07 49.7734 110.07 48.7617V45.9727L115.115 46.793V48.4746ZM110.07 29.2383C110.07 28.2266 109.879 27.2832 109.496 26.4082C109.113 25.5059 108.594 24.7266 107.938 24.0703C107.281 23.4141 106.502 22.8945 105.6 22.5117C104.725 22.1289 103.781 21.9375 102.77 21.9375H99.4062C98.3945 21.9375 97.4375 22.1289 96.5352 22.5117C95.6602 22.8945 94.8945 23.4141 94.2383 24.0703C93.582 24.7266 93.0625 25.5059 92.6797 26.4082C92.2969 27.2832 92.1055 28.2266 92.1055 29.2383V35.4727H110.07V29.2383ZM154.08 49.3359C154.08 51.0312 153.738 52.5898 153.055 54.0117C152.371 55.4062 151.441 56.6094 150.266 57.6211C149.09 58.6328 147.723 59.4258 146.164 60C144.633 60.5469 143.02 60.8203 141.324 60.8203H137.961C136.266 60.8203 134.639 60.5059 133.08 59.877C131.549 59.2207 130.195 58.332 129.02 57.2109C127.871 56.0898 126.941 54.7773 126.23 53.2734C125.547 51.7695 125.205 50.1699 125.205 48.4746V46.793L130.25 45.9727V48.7617C130.25 49.7734 130.455 50.7305 130.865 51.6328C131.303 52.5078 131.877 53.2734 132.588 53.9297C133.299 54.5859 134.119 55.1055 135.049 55.4883C135.979 55.8711 136.949 56.0625 137.961 56.0625H141.324C142.336 56.0625 143.307 55.9121 144.236 55.6113C145.166 55.3105 145.986 54.8867 146.697 54.3398C147.436 53.7656 148.01 53.082 148.42 52.2891C148.857 51.4961 149.076 50.5938 149.076 49.582C149.076 48.0781 148.748 46.8477 148.092 45.8906C147.436 44.9336 146.561 44.1406 145.467 43.5117C144.4 42.8555 143.17 42.3223 141.775 41.9121C140.408 41.4746 139 41.0508 137.551 40.6406C136.102 40.2031 134.68 39.7109 133.285 39.1641C131.918 38.6172 130.688 37.9062 129.594 37.0312C128.527 36.1289 127.666 35.0078 127.01 33.668C126.354 32.3281 126.025 30.6602 126.025 28.6641C126.025 26.9688 126.354 25.4238 127.01 24.0293C127.666 22.6074 128.555 21.3906 129.676 20.3789C130.797 19.3672 132.096 18.5879 133.572 18.041C135.076 17.4668 136.676 17.1797 138.371 17.1797H141.324C143.02 17.1797 144.619 17.5078 146.123 18.1641C147.627 18.793 148.939 19.668 150.061 20.7891C151.182 21.9102 152.057 23.2227 152.686 24.7266C153.342 26.2305 153.67 27.8301 153.67 29.5254V29.6895L148.625 30.5098V29.2383C148.625 28.2266 148.434 27.2832 148.051 26.4082C147.668 25.5059 147.148 24.7266 146.492 24.0703C145.836 23.4141 145.057 22.8945 144.154 22.5117C143.279 22.1289 142.336 21.9375 141.324 21.9375H138.371C137.359 21.9375 136.402 22.0879 135.5 22.3887C134.625 22.6895 133.859 23.127 133.203 23.7012C132.547 24.248 132.027 24.918 131.645 25.7109C131.262 26.5039 131.07 27.4062 131.07 28.418C131.07 29.8672 131.398 31.0566 132.055 31.9863C132.711 32.8887 133.572 33.6543 134.639 34.2832C135.732 34.9121 136.963 35.4453 138.33 35.8828C139.725 36.293 141.133 36.7305 142.555 37.1953C144.004 37.6328 145.412 38.1387 146.779 38.7129C148.174 39.2871 149.404 40.0254 150.471 40.9277C151.564 41.8301 152.439 42.9648 153.096 44.332C153.752 45.6719 154.08 47.3398 154.08 49.3359ZM192.635 49.3359C192.635 51.0312 192.293 52.5898 191.609 54.0117C190.926 55.4062 189.996 56.6094 188.82 57.6211C187.645 58.6328 186.277 59.4258 184.719 60C183.188 60.5469 181.574 60.8203 179.879 60.8203H176.516C174.82 60.8203 173.193 60.5059 171.635 59.877C170.104 59.2207 168.75 58.332 167.574 57.2109C166.426 56.0898 165.496 54.7773 164.785 53.2734C164.102 51.7695 163.76 50.1699 163.76 48.4746V46.793L168.805 45.9727V48.7617C168.805 49.7734 169.01 50.7305 169.42 51.6328C169.857 52.5078 170.432 53.2734 171.143 53.9297C171.854 54.5859 172.674 55.1055 173.604 55.4883C174.533 55.8711 175.504 56.0625 176.516 56.0625H179.879C180.891 56.0625 181.861 55.9121 182.791 55.6113C183.721 55.3105 184.541 54.8867 185.252 54.3398C185.99 53.7656 186.564 53.082 186.975 52.2891C187.412 51.4961 187.631 50.5938 187.631 49.582C187.631 48.0781 187.303 46.8477 186.646 45.8906C185.99 44.9336 185.115 44.1406 184.021 43.5117C182.955 42.8555 181.725 42.3223 180.33 41.9121C178.963 41.4746 177.555 41.0508 176.105 40.6406C174.656 40.2031 173.234 39.7109 171.84 39.1641C170.473 38.6172 169.242 37.9062 168.148 37.0312C167.082 36.1289 166.221 35.0078 165.564 33.668C164.908 32.3281 164.58 30.6602 164.58 28.6641C164.58 26.9688 164.908 25.4238 165.564 24.0293C166.221 22.6074 167.109 21.3906 168.23 20.3789C169.352 19.3672 170.65 18.5879 172.127 18.041C173.631 17.4668 175.23 17.1797 176.926 17.1797H179.879C181.574 17.1797 183.174 17.5078 184.678 18.1641C186.182 18.793 187.494 19.668 188.615 20.7891C189.736 21.9102 190.611 23.2227 191.24 24.7266C191.896 26.2305 192.225 27.8301 192.225 29.5254V29.6895L187.18 30.5098V29.2383C187.18 28.2266 186.988 27.2832 186.605 26.4082C186.223 25.5059 185.703 24.7266 185.047 24.0703C184.391 23.4141 183.611 22.8945 182.709 22.5117C181.834 22.1289 180.891 21.9375 179.879 21.9375H176.926C175.914 21.9375 174.957 22.0879 174.055 22.3887C173.18 22.6895 172.414 23.127 171.758 23.7012C171.102 24.248 170.582 24.918 170.199 25.7109C169.816 26.5039 169.625 27.4062 169.625 28.418C169.625 29.8672 169.953 31.0566 170.609 31.9863C171.266 32.8887 172.127 33.6543 173.193 34.2832C174.287 34.9121 175.518 35.4453 176.885 35.8828C178.279 36.293 179.688 36.7305 181.109 37.1953C182.559 37.6328 183.967 38.1387 185.334 38.7129C186.729 39.2871 187.959 40.0254 189.025 40.9277C190.119 41.8301 190.994 42.9648 191.65 44.332C192.307 45.6719 192.635 47.3398 192.635 49.3359ZM236.973 60C235.441 60 233.992 59.7129 232.625 59.1387C231.285 58.5645 230.109 57.7715 229.098 56.7598C228.113 55.748 227.32 54.5723 226.719 53.2324C226.145 51.8926 225.857 50.457 225.857 48.9258V22.7988H218.311V18H225.857V7.91016L230.902 7.08984V18H241.566V22.7988H230.902V49.1719C230.902 50.0195 231.053 50.8125 231.354 51.5508C231.682 52.2617 232.119 52.8906 232.666 53.4375C233.213 53.9844 233.855 54.4219 234.594 54.75C235.332 55.0508 236.125 55.2012 236.973 55.2012H241.566V60H236.973ZM273.887 60V29.2383C273.887 28.2266 273.695 27.2832 273.312 26.4082C272.93 25.5059 272.41 24.7266 271.754 24.0703C271.098 23.4141 270.318 22.8945 269.416 22.5117C268.541 22.1289 267.598 21.9375 266.586 21.9375H263.223C262.211 21.9375 261.254 22.1289 260.352 22.5117C259.477 22.8945 258.711 23.4141 258.055 24.0703C257.398 24.7266 256.879 25.5059 256.496 26.4082C256.113 27.2832 255.922 28.2266 255.922 29.2383V60H250.877V1.18359H255.922V21.5273C257.07 20.1602 258.451 19.0938 260.064 18.3281C261.678 17.5625 263.428 17.1797 265.314 17.1797H266.586C268.281 17.1797 269.881 17.5078 271.385 18.1641C272.889 18.793 274.201 19.668 275.322 20.7891C276.443 21.9102 277.318 23.2227 277.947 24.7266C278.604 26.2305 278.932 27.8301 278.932 29.5254V60H273.887ZM317.076 48.4746C317.076 50.1699 316.748 51.7695 316.092 53.2734C315.463 54.7773 314.588 56.0898 313.467 57.2109C312.346 58.332 311.033 59.2207 309.529 59.877C308.025 60.5059 306.426 60.8203 304.73 60.8203H301.367C299.672 60.8203 298.072 60.5059 296.568 59.877C295.064 59.2207 293.752 58.332 292.631 57.2109C291.51 56.0898 290.621 54.7773 289.965 53.2734C289.336 51.7695 289.021 50.1699 289.021 48.4746V29.5254C289.021 27.8301 289.336 26.2305 289.965 24.7266C290.621 23.2227 291.51 21.9102 292.631 20.7891C293.752 19.668 295.064 18.793 296.568 18.1641C298.072 17.5078 299.672 17.1797 301.367 17.1797H304.73C306.426 17.1797 308.025 17.5078 309.529 18.1641C311.033 18.793 312.346 19.668 313.467 20.7891C314.588 21.9102 315.463 23.2227 316.092 24.7266C316.748 26.2305 317.076 27.8301 317.076 29.5254V39.4102H294.066V48.7617C294.066 49.7734 294.258 50.7305 294.641 51.6328C295.023 52.5078 295.543 53.2734 296.199 53.9297C296.855 54.5859 297.621 55.1055 298.496 55.4883C299.398 55.8711 300.355 56.0625 301.367 56.0625H304.73C305.742 56.0625 306.686 55.8711 307.561 55.4883C308.463 55.1055 309.242 54.5859 309.898 53.9297C310.555 53.2734 311.074 52.5078 311.457 51.6328C311.84 50.7305 312.031 49.7734 312.031 48.7617V45.9727L317.076 46.793V48.4746ZM312.031 29.2383C312.031 28.2266 311.84 27.2832 311.457 26.4082C311.074 25.5059 310.555 24.7266 309.898 24.0703C309.242 23.4141 308.463 22.8945 307.561 22.5117C306.686 22.1289 305.742 21.9375 304.73 21.9375H301.367C300.355 21.9375 299.398 22.1289 298.496 22.5117C297.621 22.8945 296.855 23.4141 296.199 24.0703C295.543 24.7266 295.023 25.5059 294.641 26.4082C294.258 27.2832 294.066 28.2266 294.066 29.2383V35.4727H312.031V29.2383ZM381.881 60H379.133L369.289 28.3359L369.125 26.1621L368.961 28.3359L359.117 60H356.328L342.301 18H347.428L357.436 49.7461L357.6 51.9199L357.764 49.7461L367.607 18H370.643L380.445 49.7461L380.609 51.9199L380.773 49.7461L390.781 18H395.908L381.881 60ZM429.869 48.4746C429.869 50.1699 429.541 51.7695 428.885 53.2734C428.256 54.7773 427.381 56.0898 426.26 57.2109C425.139 58.332 423.826 59.2207 422.322 59.877C420.818 60.5059 419.219 60.8203 417.523 60.8203H414.16C412.465 60.8203 410.865 60.5059 409.361 59.877C407.857 59.2207 406.545 58.332 405.424 57.2109C404.303 56.0898 403.414 54.7773 402.758 53.2734C402.129 51.7695 401.814 50.1699 401.814 48.4746V29.5254C401.814 27.8301 402.129 26.2305 402.758 24.7266C403.414 23.2227 404.303 21.9102 405.424 20.7891C406.545 19.668 407.857 18.793 409.361 18.1641C410.865 17.5078 412.465 17.1797 414.16 17.1797H417.523C419.219 17.1797 420.818 17.5078 422.322 18.1641C423.826 18.793 425.139 19.668 426.26 20.7891C427.381 21.9102 428.256 23.2227 428.885 24.7266C429.541 26.2305 429.869 27.8301 429.869 29.5254V48.4746ZM424.824 29.2383C424.824 28.2266 424.633 27.2832 424.25 26.4082C423.867 25.5059 423.348 24.7266 422.691 24.0703C422.035 23.4141 421.256 22.8945 420.354 22.5117C419.479 22.1289 418.535 21.9375 417.523 21.9375H414.16C413.148 21.9375 412.191 22.1289 411.289 22.5117C410.414 22.8945 409.648 23.4141 408.992 24.0703C408.336 24.7266 407.816 25.5059 407.434 26.4082C407.051 27.2832 406.859 28.2266 406.859 29.2383V48.7617C406.859 49.7734 407.051 50.7305 407.434 51.6328C407.816 52.5078 408.336 53.2734 408.992 53.9297C409.648 54.5859 410.414 55.1055 411.289 55.4883C412.191 55.8711 413.148 56.0625 414.16 56.0625H417.523C418.535 56.0625 419.479 55.8711 420.354 55.4883C421.256 55.1055 422.035 54.5859 422.691 53.9297C423.348 53.2734 423.867 52.5078 424.25 51.6328C424.633 50.7305 424.824 49.7734 424.824 48.7617V29.2383ZM452.305 22.7988C451.293 22.7988 450.336 22.9902 449.434 23.373C448.559 23.7559 447.793 24.2754 447.137 24.9316C446.48 25.5879 445.961 26.3672 445.578 27.2695C445.195 28.1445 445.004 29.0879 445.004 30.0996V60H439.959V18H441.641L444.389 22.2656C445.537 20.707 446.973 19.4766 448.695 18.5742C450.445 17.6445 452.346 17.1797 454.396 17.1797H457.35V22.7988H452.305ZM490.449 60L487.66 55.7344C486.512 57.293 485.076 58.5371 483.354 59.4668C481.631 60.3691 479.744 60.8203 477.693 60.8203H476.422C474.727 60.8203 473.127 60.5059 471.623 59.877C470.119 59.2207 468.807 58.332 467.686 57.2109C466.564 56.0898 465.676 54.7773 465.02 53.2734C464.391 51.7695 464.076 50.1699 464.076 48.4746V29.5254C464.076 27.8301 464.391 26.2305 465.02 24.7266C465.676 23.2227 466.564 21.9102 467.686 20.7891C468.807 19.668 470.119 18.793 471.623 18.1641C473.127 17.5078 474.727 17.1797 476.422 17.1797H477.693C479.58 17.1797 481.33 17.5625 482.943 18.3281C484.557 19.0938 485.938 20.1602 487.086 21.5273V1.18359H492.131V60H490.449ZM487.086 29.2383C487.086 28.2266 486.895 27.2832 486.512 26.4082C486.129 25.5059 485.609 24.7266 484.953 24.0703C484.297 23.4141 483.518 22.8945 482.615 22.5117C481.74 22.1289 480.797 21.9375 479.785 21.9375H476.422C475.41 21.9375 474.453 22.1289 473.551 22.5117C472.676 22.8945 471.91 23.4141 471.254 24.0703C470.598 24.7266 470.078 25.5059 469.695 26.4082C469.312 27.2832 469.121 28.2266 469.121 29.2383V48.7617C469.121 49.7734 469.312 50.7305 469.695 51.6328C470.078 52.5078 470.598 53.2734 471.254 53.9297C471.91 54.5859 472.676 55.1055 473.551 55.4883C474.453 55.8711 475.41 56.0625 476.422 56.0625H479.785C480.797 56.0625 481.74 55.8711 482.615 55.4883C483.518 55.1055 484.297 54.5859 484.953 53.9297C485.609 53.2734 486.129 52.5078 486.512 51.6328C486.895 50.7305 487.086 49.7734 487.086 48.7617V29.2383Z" fill="#FF3D12"/>
<path d="M38.4453 156H36.0898L26.2812 118.066L26.1406 116.098L25.9297 118.066L16.1914 156H13.8359L0.441406 105.586H4.97656L14.8555 143.906L14.9961 145.77L15.1367 143.906L24.8398 105.586H27.3711L37.0742 143.906L37.2148 145.77L37.3906 143.906L47.2344 105.586H51.7695L38.4453 156ZM80.5273 146.121C80.5273 147.574 80.2461 148.945 79.6836 150.234C79.1445 151.523 78.3945 152.648 77.4336 153.609C76.4727 154.57 75.3477 155.332 74.0586 155.895C72.7695 156.434 71.3984 156.703 69.9453 156.703H67.0625C65.6094 156.703 64.2383 156.434 62.9492 155.895C61.6602 155.332 60.5352 154.57 59.5742 153.609C58.6133 152.648 57.8516 151.523 57.2891 150.234C56.75 148.945 56.4805 147.574 56.4805 146.121V129.879C56.4805 128.426 56.75 127.055 57.2891 125.766C57.8516 124.477 58.6133 123.352 59.5742 122.391C60.5352 121.43 61.6602 120.68 62.9492 120.141C64.2383 119.578 65.6094 119.297 67.0625 119.297H69.9453C71.3984 119.297 72.7695 119.578 74.0586 120.141C75.3477 120.68 76.4727 121.43 77.4336 122.391C78.3945 123.352 79.1445 124.477 79.6836 125.766C80.2461 127.055 80.5273 128.426 80.5273 129.879V146.121ZM76.2031 129.633C76.2031 128.766 76.0391 127.957 75.7109 127.207C75.3828 126.434 74.9375 125.766 74.375 125.203C73.8125 124.641 73.1445 124.195 72.3711 123.867C71.6211 123.539 70.8125 123.375 69.9453 123.375H67.0625C66.1953 123.375 65.375 123.539 64.6016 123.867C63.8516 124.195 63.1953 124.641 62.6328 125.203C62.0703 125.766 61.625 126.434 61.2969 127.207C60.9688 127.957 60.8047 128.766 60.8047 129.633V146.367C60.8047 147.234 60.9688 148.055 61.2969 148.828C61.625 149.578 62.0703 150.234 62.6328 150.797C63.1953 151.359 63.8516 151.805 64.6016 152.133C65.375 152.461 66.1953 152.625 67.0625 152.625H69.9453C70.8125 152.625 71.6211 152.461 72.3711 152.133C73.1445 151.805 73.8125 151.359 74.375 150.797C74.9375 150.234 75.3828 149.578 75.7109 148.828C76.0391 148.055 76.2031 147.234 76.2031 146.367V129.633ZM99.7578 124.113C98.8906 124.113 98.0703 124.277 97.2969 124.605C96.5469 124.934 95.8906 125.379 95.3281 125.941C94.7656 126.504 94.3203 127.172 93.9922 127.945C93.6641 128.695 93.5 129.504 93.5 130.371V156H89.1758V120H90.6172L92.9727 123.656C93.957 122.32 95.1875 121.266 96.6641 120.492C98.1641 119.695 99.793 119.297 101.551 119.297H104.082V124.113H99.7578ZM132.453 156L130.062 152.344C129.078 153.68 127.848 154.746 126.371 155.543C124.895 156.316 123.277 156.703 121.52 156.703H120.43C118.977 156.703 117.605 156.434 116.316 155.895C115.027 155.332 113.902 154.57 112.941 153.609C111.98 152.648 111.219 151.523 110.656 150.234C110.117 148.945 109.848 147.574 109.848 146.121V129.879C109.848 128.426 110.117 127.055 110.656 125.766C111.219 124.477 111.98 123.352 112.941 122.391C113.902 121.43 115.027 120.68 116.316 120.141C117.605 119.578 118.977 119.297 120.43 119.297H121.52C123.137 119.297 124.637 119.625 126.02 120.281C127.402 120.938 128.586 121.852 129.57 123.023V105.586H133.895V156H132.453ZM129.57 129.633C129.57 128.766 129.406 127.957 129.078 127.207C128.75 126.434 128.305 125.766 127.742 125.203C127.18 124.641 126.512 124.195 125.738 123.867C124.988 123.539 124.18 123.375 123.312 123.375H120.43C119.562 123.375 118.742 123.539 117.969 123.867C117.219 124.195 116.562 124.641 116 125.203C115.438 125.766 114.992 126.434 114.664 127.207C114.336 127.957 114.172 128.766 114.172 129.633V146.367C114.172 147.234 114.336 148.055 114.664 148.828C114.992 149.578 115.438 150.234 116 150.797C116.562 151.359 117.219 151.805 117.969 152.133C118.742 152.461 119.562 152.625 120.43 152.625H123.312C124.18 152.625 124.988 152.461 125.738 152.133C126.512 151.805 127.18 151.359 127.742 150.797C128.305 150.234 128.75 149.578 129.078 148.828C129.406 148.055 129.57 147.234 129.57 146.367V129.633ZM183.184 146.121C183.184 147.574 182.902 148.945 182.34 150.234C181.801 151.523 181.051 152.648 180.09 153.609C179.129 154.57 178.004 155.332 176.715 155.895C175.426 156.434 174.055 156.703 172.602 156.703H171.512C169.895 156.703 168.395 156.375 167.012 155.719C165.629 155.062 164.445 154.148 163.461 152.977V170.414H159.137V120H160.578L162.934 123.656C163.918 122.32 165.148 121.266 166.625 120.492C168.125 119.695 169.754 119.297 171.512 119.297H172.602C174.055 119.297 175.426 119.578 176.715 120.141C178.004 120.68 179.129 121.43 180.09 122.391C181.051 123.352 181.801 124.477 182.34 125.766C182.902 127.055 183.184 128.426 183.184 129.879V146.121ZM178.859 129.633C178.859 128.766 178.695 127.957 178.367 127.207C178.039 126.434 177.594 125.766 177.031 125.203C176.469 124.641 175.801 124.195 175.027 123.867C174.277 123.539 173.469 123.375 172.602 123.375H169.719C168.852 123.375 168.031 123.539 167.258 123.867C166.508 124.195 165.852 124.641 165.289 125.203C164.727 125.766 164.281 126.434 163.953 127.207C163.625 127.957 163.461 128.766 163.461 129.633V146.367C163.461 147.234 163.625 148.055 163.953 148.828C164.281 149.578 164.727 150.234 165.289 150.797C165.852 151.359 166.508 151.805 167.258 152.133C168.031 152.461 168.852 152.625 169.719 152.625H172.602C173.469 152.625 174.277 152.461 175.027 152.133C175.801 151.805 176.469 151.359 177.031 150.797C177.594 150.234 178.039 149.578 178.367 148.828C178.695 148.055 178.859 147.234 178.859 146.367V129.633ZM214.438 156L212.047 152.344C211.062 153.68 209.832 154.746 208.355 155.543C206.879 156.316 205.262 156.703 203.504 156.703H202.414C200.961 156.703 199.59 156.434 198.301 155.895C197.012 155.332 195.887 154.57 194.926 153.609C193.965 152.648 193.203 151.523 192.641 150.234C192.102 148.945 191.832 147.574 191.832 146.121V120H196.156V146.367C196.156 147.234 196.32 148.055 196.648 148.828C196.977 149.578 197.422 150.234 197.984 150.797C198.547 151.359 199.203 151.805 199.953 152.133C200.727 152.461 201.547 152.625 202.414 152.625H205.297C206.164 152.625 206.973 152.461 207.723 152.133C208.496 151.805 209.164 151.359 209.727 150.797C210.289 150.234 210.734 149.578 211.062 148.828C211.391 148.055 211.555 147.234 211.555 146.367V120H215.879V156H214.438ZM223.086 156V154.066L241.227 124.113H223.789V120H247.133V121.934L228.992 151.887H247.133V156H223.086ZM252.898 156V154.066L271.039 124.113H253.602V120H276.945V121.934L258.805 151.887H276.945V156H252.898ZM285.594 156V105.586H289.918V156H285.594ZM324.09 146.121C324.09 147.574 323.809 148.945 323.246 150.234C322.707 151.523 321.957 152.648 320.996 153.609C320.035 154.57 318.91 155.332 317.621 155.895C316.332 156.434 314.961 156.703 313.508 156.703H310.625C309.172 156.703 307.801 156.434 306.512 155.895C305.223 155.332 304.098 154.57 303.137 153.609C302.176 152.648 301.414 151.523 300.852 150.234C300.312 148.945 300.043 147.574 300.043 146.121V129.879C300.043 128.426 300.312 127.055 300.852 125.766C301.414 124.477 302.176 123.352 303.137 122.391C304.098 121.43 305.223 120.68 306.512 120.141C307.801 119.578 309.172 119.297 310.625 119.297H313.508C314.961 119.297 316.332 119.578 317.621 120.141C318.91 120.68 320.035 121.43 320.996 122.391C321.957 123.352 322.707 124.477 323.246 125.766C323.809 127.055 324.09 128.426 324.09 129.879V138.352H304.367V146.367C304.367 147.234 304.531 148.055 304.859 148.828C305.188 149.578 305.633 150.234 306.195 150.797C306.758 151.359 307.414 151.805 308.164 152.133C308.938 152.461 309.758 152.625 310.625 152.625H313.508C314.375 152.625 315.184 152.461 315.934 152.133C316.707 151.805 317.375 151.359 317.938 150.797C318.5 150.234 318.945 149.578 319.273 148.828C319.602 148.055 319.766 147.234 319.766 146.367V143.977L324.09 144.68V146.121ZM319.766 129.633C319.766 128.766 319.602 127.957 319.273 127.207C318.945 126.434 318.5 125.766 317.938 125.203C317.375 124.641 316.707 124.195 315.934 123.867C315.184 123.539 314.375 123.375 313.508 123.375H310.625C309.758 123.375 308.938 123.539 308.164 123.867C307.414 124.195 306.758 124.641 306.195 125.203C305.633 125.766 305.188 126.434 304.859 127.207C304.531 127.957 304.367 128.766 304.367 129.633V134.977H319.766V129.633ZM373.73 160.535C373.73 161.988 373.449 163.324 372.887 164.543C372.348 165.762 371.598 166.805 370.637 167.672C369.676 168.539 368.551 169.207 367.262 169.676C365.973 170.168 364.602 170.414 363.148 170.414H361.355C359.902 170.414 358.531 170.168 357.242 169.676C355.953 169.207 354.828 168.539 353.867 167.672C352.906 166.805 352.145 165.762 351.582 164.543C351.043 163.324 350.773 161.988 350.773 160.535V160.395C350.773 158.988 351.031 157.699 351.547 156.527C352.062 155.355 352.766 154.336 353.656 153.469C352.531 152.789 351.629 151.875 350.949 150.727C350.293 149.555 349.965 148.266 349.965 146.859C349.965 145.594 350.234 144.422 350.773 143.344C351.312 142.242 352.051 141.352 352.988 140.672C351.863 139.688 350.973 138.504 350.316 137.121C349.66 135.738 349.332 134.227 349.332 132.586V129.879C349.332 128.426 349.602 127.055 350.141 125.766C350.703 124.477 351.465 123.352 352.426 122.391C353.387 121.43 354.512 120.68 355.801 120.141C357.09 119.578 358.461 119.297 359.914 119.297H361.707C363.465 119.297 365.082 119.695 366.559 120.492C368.059 121.266 369.301 122.32 370.285 123.656L372.641 120H374.082V132.586C374.082 134.039 373.801 135.41 373.238 136.699C372.699 137.988 371.949 139.113 370.988 140.074C370.027 141.035 368.902 141.797 367.613 142.359C366.324 142.898 364.953 143.168 363.5 143.168H357.242C356.75 143.168 356.281 143.273 355.836 143.484C355.391 143.672 354.992 143.93 354.641 144.258C354.312 144.586 354.055 144.984 353.867 145.453C353.68 145.898 353.586 146.367 353.586 146.859C353.586 147.352 353.68 147.82 353.867 148.266C354.055 148.711 354.312 149.109 354.641 149.461C354.992 149.789 355.391 150.047 355.836 150.234C356.281 150.422 356.75 150.516 357.242 150.516H363.148C364.602 150.516 365.973 150.762 367.262 151.254C368.551 151.723 369.676 152.391 370.637 153.258C371.598 154.125 372.348 155.168 372.887 156.387C373.449 157.605 373.73 158.941 373.73 160.395V160.535ZM369.793 129.633C369.793 128.766 369.629 127.957 369.301 127.207C368.973 126.434 368.516 125.766 367.93 125.203C367.367 124.641 366.699 124.195 365.926 123.867C365.176 123.539 364.367 123.375 363.5 123.375H359.914C359.047 123.375 358.227 123.539 357.453 123.867C356.703 124.195 356.047 124.641 355.484 125.203C354.922 125.766 354.477 126.434 354.148 127.207C353.82 127.957 353.656 128.766 353.656 129.633V132.832C353.656 133.699 353.82 134.52 354.148 135.293C354.477 136.043 354.922 136.699 355.484 137.262C356.047 137.824 356.703 138.27 357.453 138.598C358.227 138.926 359.047 139.09 359.914 139.09H363.5C364.367 139.09 365.176 138.926 365.926 138.598C366.699 138.27 367.367 137.824 367.93 137.262C368.516 136.699 368.973 136.043 369.301 135.293C369.629 134.52 369.793 133.699 369.793 132.832V129.633ZM369.617 160.184C369.617 159.316 369.453 158.531 369.125 157.828C368.797 157.148 368.352 156.574 367.789 156.105C367.227 155.637 366.559 155.273 365.785 155.016C365.035 154.758 364.227 154.629 363.359 154.629H361.145C360.277 154.629 359.457 154.758 358.684 155.016C357.934 155.273 357.277 155.637 356.715 156.105C356.152 156.574 355.707 157.148 355.379 157.828C355.051 158.531 354.887 159.316 354.887 160.184V160.746C354.887 161.613 355.051 162.387 355.379 163.066C355.707 163.746 356.152 164.32 356.715 164.789C357.277 165.281 357.934 165.656 358.684 165.914C359.457 166.172 360.277 166.301 361.145 166.301H363.359C364.227 166.301 365.035 166.172 365.785 165.914C366.559 165.656 367.227 165.281 367.789 164.789C368.352 164.32 368.797 163.746 369.125 163.066C369.453 162.387 369.617 161.613 369.617 160.746V160.184ZM404.633 156L402.242 152.414C401.258 153.703 400.027 154.746 398.551 155.543C397.074 156.316 395.457 156.703 393.699 156.703H392.609C391.156 156.703 389.785 156.434 388.496 155.895C387.207 155.332 386.082 154.57 385.121 153.609C384.16 152.648 383.398 151.523 382.836 150.234C382.297 148.945 382.027 147.574 382.027 146.121V145.77C382.027 144.316 382.297 142.945 382.836 141.656C383.398 140.367 384.16 139.242 385.121 138.281C386.082 137.32 387.207 136.57 388.496 136.031C389.785 135.469 391.156 135.188 392.609 135.188H401.75V129.633C401.75 128.766 401.586 127.957 401.258 127.207C400.93 126.434 400.484 125.766 399.922 125.203C399.359 124.641 398.691 124.195 397.918 123.867C397.168 123.539 396.359 123.375 395.492 123.375H392.961C392.094 123.375 391.273 123.539 390.5 123.867C389.75 124.195 389.094 124.641 388.531 125.203C387.969 125.766 387.523 126.434 387.195 127.207C386.867 127.957 386.703 128.766 386.703 129.633V130.934L382.379 130.23V129.879C382.379 128.426 382.648 127.055 383.188 125.766C383.75 124.477 384.512 123.352 385.473 122.391C386.434 121.43 387.559 120.68 388.848 120.141C390.137 119.578 391.508 119.297 392.961 119.297H395.492C396.945 119.297 398.316 119.578 399.605 120.141C400.895 120.68 402.02 121.43 402.98 122.391C403.941 123.352 404.691 124.477 405.23 125.766C405.793 127.055 406.074 128.426 406.074 129.879V156H404.633ZM401.75 138.562H392.609C391.742 138.562 390.922 138.727 390.148 139.055C389.398 139.383 388.742 139.84 388.18 140.426C387.617 140.988 387.172 141.656 386.844 142.43C386.516 143.18 386.352 143.988 386.352 144.855V146.367C386.352 147.234 386.516 148.055 386.844 148.828C387.172 149.578 387.617 150.234 388.18 150.797C388.742 151.359 389.398 151.805 390.148 152.133C390.922 152.461 391.742 152.625 392.609 152.625H395.492C396.359 152.625 397.168 152.461 397.918 152.133C398.691 151.805 399.359 151.359 399.922 150.797C400.484 150.234 400.93 149.578 401.258 148.828C401.586 148.055 401.75 147.234 401.75 146.367V138.562ZM452.727 156V129.633C452.727 128.766 452.562 127.957 452.234 127.207C451.906 126.434 451.461 125.766 450.898 125.203C450.336 124.641 449.668 124.195 448.895 123.867C448.145 123.539 447.336 123.375 446.469 123.375H444.324C443.457 123.375 442.637 123.539 441.863 123.867C441.113 124.195 440.445 124.641 439.859 125.203C439.297 125.766 438.852 126.434 438.523 127.207C438.195 127.957 438.031 128.766 438.031 129.633V156H433.742V129.633C433.742 128.766 433.578 127.957 433.25 127.207C432.922 126.434 432.465 125.766 431.879 125.203C431.316 124.641 430.648 124.195 429.875 123.867C429.125 123.539 428.316 123.375 427.449 123.375H425.305C424.438 123.375 423.617 123.539 422.844 123.867C422.094 124.195 421.438 124.641 420.875 125.203C420.312 125.766 419.867 126.434 419.539 127.207C419.211 127.957 419.047 128.766 419.047 129.633V156H414.723V120H416.164L418.52 123.656C419.504 122.32 420.734 121.266 422.211 120.492C423.711 119.695 425.34 119.297 427.098 119.297H427.449C429.488 119.297 431.328 119.801 432.969 120.809C434.609 121.816 435.875 123.152 436.766 124.816C437.211 123.996 437.762 123.246 438.418 122.566C439.074 121.887 439.801 121.312 440.598 120.844C441.395 120.352 442.262 119.977 443.199 119.719C444.137 119.438 445.109 119.297 446.117 119.297H446.469C447.922 119.297 449.293 119.578 450.582 120.141C451.871 120.68 452.996 121.43 453.957 122.391C454.918 123.352 455.668 124.477 456.207 125.766C456.77 127.055 457.051 128.426 457.051 129.879V156H452.727ZM489.746 146.121C489.746 147.574 489.465 148.945 488.902 150.234C488.363 151.523 487.613 152.648 486.652 153.609C485.691 154.57 484.566 155.332 483.277 155.895C481.988 156.434 480.617 156.703 479.164 156.703H476.281C474.828 156.703 473.457 156.434 472.168 155.895C470.879 155.332 469.754 154.57 468.793 153.609C467.832 152.648 467.07 151.523 466.508 150.234C465.969 148.945 465.699 147.574 465.699 146.121V129.879C465.699 128.426 465.969 127.055 466.508 125.766C467.07 124.477 467.832 123.352 468.793 122.391C469.754 121.43 470.879 120.68 472.168 120.141C473.457 119.578 474.828 119.297 476.281 119.297H479.164C480.617 119.297 481.988 119.578 483.277 120.141C484.566 120.68 485.691 121.43 486.652 122.391C487.613 123.352 488.363 124.477 488.902 125.766C489.465 127.055 489.746 128.426 489.746 129.879V138.352H470.023V146.367C470.023 147.234 470.188 148.055 470.516 148.828C470.844 149.578 471.289 150.234 471.852 150.797C472.414 151.359 473.07 151.805 473.82 152.133C474.594 152.461 475.414 152.625 476.281 152.625H479.164C480.031 152.625 480.84 152.461 481.59 152.133C482.363 151.805 483.031 151.359 483.594 150.797C484.156 150.234 484.602 149.578 484.93 148.828C485.258 148.055 485.422 147.234 485.422 146.367V143.977L489.746 144.68V146.121ZM485.422 129.633C485.422 128.766 485.258 127.957 484.93 127.207C484.602 126.434 484.156 125.766 483.594 125.203C483.031 124.641 482.363 124.195 481.59 123.867C480.84 123.539 480.031 123.375 479.164 123.375H476.281C475.414 123.375 474.594 123.539 473.82 123.867C473.07 124.195 472.414 124.641 471.852 125.203C471.289 125.766 470.844 126.434 470.516 127.207C470.188 127.957 470.023 128.766 470.023 129.633V134.977H485.422V129.633Z" fill="#FF7C3B"/>
</svg>
