<svg width="104" height="79" viewBox="0 0 104 79" fill="none" xmlns="http://www.w3.org/2000/svg">
<path d="M45.9512 5.85059C49.5265 3.13477 54.4735 3.13477 58.0488 5.85059L91.8633 31.5371C97.1314 35.5389 97.1314 43.4611 91.8633 47.4629L58.0488 73.1494C54.4735 75.8652 49.5265 75.8652 45.9512 73.1494L12.1367 47.4629C6.86857 43.4611 6.86857 35.5389 12.1367 31.5371L45.9512 5.85059Z" stroke="#3E87FF" stroke-width="2" stroke-linejoin="round"/>
<path d="M51.8125 41.8047C51.7891 42.4141 51.7773 43.0234 51.7773 43.6328C51.7773 44.793 51.8125 45.9414 51.8711 47.1016C51.8945 47.8516 51.8359 49.4922 53.043 49.4922C53.0781 49.4922 53.1133 49.4922 53.1484 49.4805C54.6367 49.1992 54.3672 48.1797 54.3672 46.9023C54.332 45.5312 54.2617 44.1719 54.2617 42.8008C54.2617 42.4609 54.2617 42.1211 54.2734 41.793C54.3203 39.0391 54.2852 36.2852 54.5078 33.543C54.5195 33.4023 54.5312 33.2617 54.5312 33.1211C54.5312 32.2539 54.2852 31.7383 53.6172 31.7383C53.1016 31.7383 52.6797 32.1719 52.2344 32.7227C51.5898 33.5312 51.0156 34.1289 49.8906 34.4219C49.2109 34.5859 47.3945 34.5156 47.3945 35.6055C47.3945 36.3672 47.9336 37.0234 48.625 37.0234C49.5859 37.0234 50.5469 36.8359 51.4258 36.4609L51.9531 36.2266L51.9414 36.8125L51.8125 41.8047Z" fill="black"/>
</svg>
