<svg width="50" height="48" viewBox="0 0 50 48" fill="none" xmlns="http://www.w3.org/2000/svg">
<path d="M21.8887 14.7509L23.2439 22.0111L16.0052 18.3381L8.87381 22.222L10.1275 14.2002L4.22827 8.61934L11.1605 7.50824L12.2462 7.33249L15.7318 0L19.4322 7.22705L27.4833 8.27371L21.754 14.0284L21.8887 14.7509Z" fill="#F7C93F"/>
<path d="M20.3423 13.593L21.4729 19.6464L15.9818 16.8619L10.5728 19.8085L11.5237 13.7238L7.052 9.49031L13.1328 8.51394L15.7748 2.95258L18.5829 8.43388L24.689 9.22864L20.3423 13.593Z" fill="#F7E33F"/>
<path opacity="0.2" d="M21.7539 14.0284L21.8887 14.7509C21.4548 14.8154 21.017 14.8493 20.5784 14.8524H20.4944C18.3396 14.8556 16.2465 14.1326 14.553 12.8001C12.8595 11.4676 11.6643 9.60336 11.1604 7.50824L12.2461 7.33249L15.7317 0L19.4322 7.22509L27.4832 8.27175L21.7539 14.0284Z" fill="white"/>
<path d="M42.5487 37.6164L44.3536 47.2862L34.7124 42.3941L25.2142 47.5671L26.8839 36.8829L19.0269 29.4498L28.2598 27.9699L29.7058 27.7359L34.3483 17.9698L39.2768 27.5954L50 28.9895L42.3692 36.6541L42.5487 37.6164Z" fill="#F7C93F"/>
<path d="M40.4888 36.0741L41.9946 44.1366L34.6811 40.4279L27.4769 44.3525L28.7435 36.2483L22.7876 30.6098L30.8865 29.3094L34.4055 21.9022L38.1454 29.2027L46.2782 30.2613L40.4888 36.0741Z" fill="#F7E33F"/>
<path opacity="0.2" d="M42.3692 36.6541L42.5487 37.6164C41.9708 37.7022 41.3877 37.7474 40.8035 37.7516H40.6917C37.8216 37.7558 35.0339 36.7928 32.7783 35.0181C30.5228 33.2433 28.9309 30.7604 28.2598 27.9699L29.7058 27.7359L34.3483 17.9698L39.2768 27.5928L50 28.9869L42.3692 36.6541Z" fill="white"/>
<path d="M12.0412 38.5977L12.9652 43.5479L8.02971 41.0435L3.16741 43.6917L4.02218 38.2223L0 34.4171L4.72649 33.6595L5.46675 33.5397L7.84331 28.5403L10.3663 33.4678L15.8557 34.1814L11.9494 38.1051L12.0412 38.5977Z" fill="#F7C93F"/>
<path d="M10.9868 37.8082L11.7577 41.9356L8.01381 40.037L4.32582 42.0461L4.97421 37.8974L1.92529 35.011L6.07129 34.3452L7.87268 30.5534L9.78724 34.2907L13.9505 34.8325L10.9868 37.8082Z" fill="#F7E33F"/>
<path opacity="0.2" d="M11.9494 38.1051L12.0413 38.5977C11.7455 38.6417 11.447 38.6648 11.1479 38.667H11.0907C9.62145 38.6691 8.19435 38.1761 7.03969 37.2676C5.88503 36.3591 5.07015 35.088 4.72656 33.6595L5.46682 33.5397L7.84338 28.5403L10.3664 33.4665L15.8558 34.1801L11.9494 38.1051Z" fill="white"/>
</svg>
